<mxfile host="app.diagrams.net" agent="Mozilla/5.0 (Windows NT 10.0; Win64; x64) AppleWebKit/537.36 (KHTML, like Gecko) Chrome/138.0.0.0 Safari/537.36 Edg/138.0.0.0" version="28.0.7">
  <diagram name="Página-1" id="VS_kMk4__Th0lVnAzAwd">
    <mxGraphModel dx="1402" dy="779" grid="1" gridSize="10" guides="1" tooltips="1" connect="1" arrows="1" fold="1" page="1" pageScale="1" pageWidth="827" pageHeight="1169" math="0" shadow="0">
      <root>
        <mxCell id="0" />
        <mxCell id="1" parent="0" />
        <mxCell id="0iSvwvWQXuImEQYI40fY-5" value="Produto" style="swimlane;fontStyle=1;align=center;verticalAlign=top;childLayout=stackLayout;horizontal=1;startSize=26;horizontalStack=0;resizeParent=1;resizeParentMax=0;resizeLast=0;collapsible=1;marginBottom=0;whiteSpace=wrap;html=1;" vertex="1" parent="1">
          <mxGeometry x="40" y="240" width="160" height="150" as="geometry" />
        </mxCell>
        <mxCell id="0iSvwvWQXuImEQYI40fY-6" value="&lt;div&gt;+Nome: String&lt;/div&gt;&lt;div&gt;+Tipo: String&lt;/div&gt;&lt;div&gt;+Preço: Float&lt;/div&gt;&lt;div&gt;&lt;br&gt;&lt;/div&gt;" style="text;strokeColor=none;fillColor=none;align=left;verticalAlign=top;spacingLeft=4;spacingRight=4;overflow=hidden;rotatable=0;points=[[0,0.5],[1,0.5]];portConstraint=eastwest;whiteSpace=wrap;html=1;" vertex="1" parent="0iSvwvWQXuImEQYI40fY-5">
          <mxGeometry y="26" width="160" height="54" as="geometry" />
        </mxCell>
        <mxCell id="0iSvwvWQXuImEQYI40fY-7" value="" style="line;strokeWidth=1;fillColor=none;align=left;verticalAlign=middle;spacingTop=-1;spacingLeft=3;spacingRight=3;rotatable=0;labelPosition=right;points=[];portConstraint=eastwest;strokeColor=inherit;" vertex="1" parent="0iSvwvWQXuImEQYI40fY-5">
          <mxGeometry y="80" width="160" height="8" as="geometry" />
        </mxCell>
        <mxCell id="0iSvwvWQXuImEQYI40fY-8" value="Cadastrar: Null&lt;br&gt;Listar: Table&lt;div&gt;Excluir: Null&lt;/div&gt;" style="text;strokeColor=none;fillColor=none;align=left;verticalAlign=top;spacingLeft=4;spacingRight=4;overflow=hidden;rotatable=0;points=[[0,0.5],[1,0.5]];portConstraint=eastwest;whiteSpace=wrap;html=1;" vertex="1" parent="0iSvwvWQXuImEQYI40fY-5">
          <mxGeometry y="88" width="160" height="62" as="geometry" />
        </mxCell>
        <mxCell id="0iSvwvWQXuImEQYI40fY-22" style="edgeStyle=orthogonalEdgeStyle;rounded=0;orthogonalLoop=1;jettySize=auto;html=1;exitX=0.5;exitY=0;exitDx=0;exitDy=0;entryX=0.5;entryY=0.986;entryDx=0;entryDy=0;entryPerimeter=0;" edge="1" parent="1" source="0iSvwvWQXuImEQYI40fY-9" target="0iSvwvWQXuImEQYI40fY-16">
          <mxGeometry relative="1" as="geometry" />
        </mxCell>
        <mxCell id="0iSvwvWQXuImEQYI40fY-9" value="Usuario" style="swimlane;fontStyle=1;align=center;verticalAlign=top;childLayout=stackLayout;horizontal=1;startSize=26;horizontalStack=0;resizeParent=1;resizeParentMax=0;resizeLast=0;collapsible=1;marginBottom=0;whiteSpace=wrap;html=1;" vertex="1" parent="1">
          <mxGeometry x="380" y="415" width="160" height="170" as="geometry" />
        </mxCell>
        <mxCell id="0iSvwvWQXuImEQYI40fY-10" value="+Nome: String&lt;div&gt;+Email: String&lt;/div&gt;&lt;div&gt;+Senha: String&lt;/div&gt;&lt;div&gt;+Tipo: Enum&lt;/div&gt;" style="text;strokeColor=none;fillColor=none;align=left;verticalAlign=top;spacingLeft=4;spacingRight=4;overflow=hidden;rotatable=0;points=[[0,0.5],[1,0.5]];portConstraint=eastwest;whiteSpace=wrap;html=1;" vertex="1" parent="0iSvwvWQXuImEQYI40fY-9">
          <mxGeometry y="26" width="160" height="74" as="geometry" />
        </mxCell>
        <mxCell id="0iSvwvWQXuImEQYI40fY-17" value="" style="line;strokeWidth=1;fillColor=none;align=left;verticalAlign=middle;spacingTop=-1;spacingLeft=3;spacingRight=3;rotatable=0;labelPosition=right;points=[];portConstraint=eastwest;strokeColor=inherit;" vertex="1" parent="0iSvwvWQXuImEQYI40fY-9">
          <mxGeometry y="100" width="160" height="8" as="geometry" />
        </mxCell>
        <mxCell id="0iSvwvWQXuImEQYI40fY-12" value="Cadastrar: Null&lt;div&gt;Excluir: Null&lt;/div&gt;&lt;div&gt;Listar: Table&lt;/div&gt;" style="text;strokeColor=none;fillColor=none;align=left;verticalAlign=top;spacingLeft=4;spacingRight=4;overflow=hidden;rotatable=0;points=[[0,0.5],[1,0.5]];portConstraint=eastwest;whiteSpace=wrap;html=1;" vertex="1" parent="0iSvwvWQXuImEQYI40fY-9">
          <mxGeometry y="108" width="160" height="62" as="geometry" />
        </mxCell>
        <mxCell id="0iSvwvWQXuImEQYI40fY-11" value="" style="line;strokeWidth=1;fillColor=none;align=left;verticalAlign=middle;spacingTop=-1;spacingLeft=3;spacingRight=3;rotatable=0;labelPosition=right;points=[];portConstraint=eastwest;strokeColor=inherit;" vertex="1" parent="0iSvwvWQXuImEQYI40fY-9">
          <mxGeometry y="170" width="160" as="geometry" />
        </mxCell>
        <mxCell id="0iSvwvWQXuImEQYI40fY-23" style="edgeStyle=orthogonalEdgeStyle;rounded=0;orthogonalLoop=1;jettySize=auto;html=1;exitX=0.5;exitY=0;exitDx=0;exitDy=0;entryX=0.5;entryY=0;entryDx=0;entryDy=0;" edge="1" parent="1" source="0iSvwvWQXuImEQYI40fY-13" target="0iSvwvWQXuImEQYI40fY-5">
          <mxGeometry relative="1" as="geometry" />
        </mxCell>
        <mxCell id="0iSvwvWQXuImEQYI40fY-13" value="Compra" style="swimlane;fontStyle=1;align=center;verticalAlign=top;childLayout=stackLayout;horizontal=1;startSize=26;horizontalStack=0;resizeParent=1;resizeParentMax=0;resizeLast=0;collapsible=1;marginBottom=0;whiteSpace=wrap;html=1;" vertex="1" parent="1">
          <mxGeometry x="310" y="140" width="160" height="170" as="geometry" />
        </mxCell>
        <mxCell id="0iSvwvWQXuImEQYI40fY-14" value="&lt;div&gt;+Id do comprador: Int&lt;/div&gt;&lt;div&gt;+Ids dos produtos (JSON): Int&lt;/div&gt;&lt;div&gt;+Finalizada (bool): Bool&lt;/div&gt;&lt;div&gt;&lt;br&gt;&lt;/div&gt;" style="text;strokeColor=none;fillColor=none;align=left;verticalAlign=top;spacingLeft=4;spacingRight=4;overflow=hidden;rotatable=0;points=[[0,0.5],[1,0.5]];portConstraint=eastwest;whiteSpace=wrap;html=1;" vertex="1" parent="0iSvwvWQXuImEQYI40fY-13">
          <mxGeometry y="26" width="160" height="64" as="geometry" />
        </mxCell>
        <mxCell id="0iSvwvWQXuImEQYI40fY-15" value="" style="line;strokeWidth=1;fillColor=none;align=left;verticalAlign=middle;spacingTop=-1;spacingLeft=3;spacingRight=3;rotatable=0;labelPosition=right;points=[];portConstraint=eastwest;strokeColor=inherit;" vertex="1" parent="0iSvwvWQXuImEQYI40fY-13">
          <mxGeometry y="90" width="160" height="8" as="geometry" />
        </mxCell>
        <mxCell id="0iSvwvWQXuImEQYI40fY-16" value="Criar: Null&lt;br&gt;Excluir:Null&lt;br&gt;Atualizar:Null&lt;div&gt;Listar:Table&lt;/div&gt;" style="text;strokeColor=none;fillColor=none;align=left;verticalAlign=top;spacingLeft=4;spacingRight=4;overflow=hidden;rotatable=0;points=[[0,0.5],[1,0.5]];portConstraint=eastwest;whiteSpace=wrap;html=1;" vertex="1" parent="0iSvwvWQXuImEQYI40fY-13">
          <mxGeometry y="98" width="160" height="72" as="geometry" />
        </mxCell>
        <mxCell id="0iSvwvWQXuImEQYI40fY-18" value="Configuraçoes" style="swimlane;fontStyle=1;align=center;verticalAlign=top;childLayout=stackLayout;horizontal=1;startSize=26;horizontalStack=0;resizeParent=1;resizeParentMax=0;resizeLast=0;collapsible=1;marginBottom=0;whiteSpace=wrap;html=1;" vertex="1" parent="1">
          <mxGeometry x="640" y="190" width="160" height="190" as="geometry">
            <mxRectangle x="640" y="190" width="100" height="30" as="alternateBounds" />
          </mxGeometry>
        </mxCell>
        <mxCell id="0iSvwvWQXuImEQYI40fY-19" value="&lt;div&gt;+Id_Usuário: Int&lt;/div&gt;&lt;div&gt;+Tema: &quot;light&quot; ou &quot;dark&quot;: String&lt;/div&gt;&lt;div&gt;+Volume:Int&lt;/div&gt;&lt;div&gt;+Moeda de preferência: &quot;R$&quot;, &quot;$&quot; ou libra esterlina: String&lt;/div&gt;" style="text;strokeColor=none;fillColor=none;align=left;verticalAlign=top;spacingLeft=4;spacingRight=4;overflow=hidden;rotatable=0;points=[[0,0.5],[1,0.5]];portConstraint=eastwest;whiteSpace=wrap;html=1;" vertex="1" parent="0iSvwvWQXuImEQYI40fY-18">
          <mxGeometry y="26" width="160" height="114" as="geometry" />
        </mxCell>
        <mxCell id="0iSvwvWQXuImEQYI40fY-20" value="" style="line;strokeWidth=1;fillColor=none;align=left;verticalAlign=middle;spacingTop=-1;spacingLeft=3;spacingRight=3;rotatable=0;labelPosition=right;points=[];portConstraint=eastwest;strokeColor=inherit;" vertex="1" parent="0iSvwvWQXuImEQYI40fY-18">
          <mxGeometry y="140" width="160" height="8" as="geometry" />
        </mxCell>
        <mxCell id="0iSvwvWQXuImEQYI40fY-21" value="Criar: Null&lt;div&gt;Atualizar: Null&lt;/div&gt;" style="text;strokeColor=none;fillColor=none;align=left;verticalAlign=top;spacingLeft=4;spacingRight=4;overflow=hidden;rotatable=0;points=[[0,0.5],[1,0.5]];portConstraint=eastwest;whiteSpace=wrap;html=1;" vertex="1" parent="0iSvwvWQXuImEQYI40fY-18">
          <mxGeometry y="148" width="160" height="42" as="geometry" />
        </mxCell>
        <mxCell id="0iSvwvWQXuImEQYI40fY-24" style="edgeStyle=orthogonalEdgeStyle;rounded=0;orthogonalLoop=1;jettySize=auto;html=1;exitX=1;exitY=0.5;exitDx=0;exitDy=0;entryX=0;entryY=0.5;entryDx=0;entryDy=0;" edge="1" parent="1" source="0iSvwvWQXuImEQYI40fY-10" target="0iSvwvWQXuImEQYI40fY-19">
          <mxGeometry relative="1" as="geometry" />
        </mxCell>
      </root>
    </mxGraphModel>
  </diagram>
</mxfile>
